<?xml version="1.0" standalone="no"?>
<!DOCTYPE svg PUBLIC "-//W3C//DTD SVG 20010904//EN"
 "http://www.w3.org/TR/2001/REC-SVG-20010904/DTD/svg10.dtd">
<svg version="1.0" xmlns="http://www.w3.org/2000/svg"
 width="1300.000000pt" height="1300.000000pt" viewBox="0 0 1300.000000 1300.000000"
 preserveAspectRatio="xMidYMid meet">
<metadata>
Created by potrace 1.11, written by Peter Selinger 2001-2013
</metadata>
<g transform="translate(0.000000,1300.000000) scale(0.100000,-0.100000)"
fill="#000000" stroke="none">
<path d="M9768 11135 c-1 -2 -39 -6 -83 -9 -106 -9 -189 -18 -195 -21 -3 -2
-34 -6 -70 -10 -36 -3 -72 -8 -80 -10 -8 -2 -30 -7 -48 -10 -18 -3 -65 -12
-105 -21 -39 -8 -83 -18 -97 -20 -14 -3 -34 -8 -45 -11 -11 -4 -24 -8 -30 -9
-101 -19 -398 -120 -549 -185 -99 -43 -345 -167 -377 -190 -15 -10 -30 -19
-34 -19 -11 0 -256 -162 -285 -187 -14 -13 -28 -23 -32 -23 -3 0 -13 -6 -20
-13 -7 -7 -31 -26 -53 -42 -22 -17 -45 -34 -51 -40 -169 -148 -252 -229 -342
-330 -89 -101 -101 -115 -135 -162 -17 -24 -34 -43 -37 -43 -4 0 -25 21 -46
47 -86 106 -336 345 -474 453 -18 14 -37 30 -44 36 -67 62 -498 342 -531 345
-5 0 -17 6 -25 13 -21 19 -252 127 -380 178 -76 31 -263 97 -290 103 -8 2 -67
18 -130 35 -63 18 -128 34 -145 37 -16 2 -46 8 -65 13 -19 5 -48 11 -65 14
-82 14 -174 28 -205 31 -19 3 -48 7 -65 10 -161 26 -732 26 -869 -1 -12 -2
-41 -6 -66 -9 -74 -9 -281 -45 -350 -61 -36 -9 -72 -17 -80 -19 -8 -2 -49 -13
-90 -25 -41 -11 -82 -23 -90 -25 -40 -10 -259 -89 -346 -125 -359 -150 -659
-330 -964 -579 -134 -108 -400 -375 -511 -511 -377 -462 -641 -993 -769 -1550
-35 -151 -50 -236 -85 -495 -11 -73 -13 -589 -4 -685 8 -84 39 -311 54 -395
84 -470 291 -981 564 -1390 99 -148 200 -282 290 -385 86 -98 294 -307 396
-397 68 -59 95 -81 235 -186 57 -43 205 -144 252 -172 142 -85 319 -178 439
-230 57 -25 113 -50 124 -55 98 -46 319 -119 482 -160 340 -85 610 -118 958
-117 204 0 290 5 520 31 115 13 411 78 557 122 295 88 582 212 819 352 l84 50
2 -51 c2 -29 4 -333 7 -677 2 -344 6 -636 9 -650 3 -14 8 -43 12 -65 21 -134
91 -348 155 -475 47 -91 149 -251 204 -319 111 -137 318 -316 458 -398 143
-84 328 -165 443 -194 22 -5 47 -11 55 -14 100 -26 209 -43 341 -51 l99 -6 1
1063 c0 1143 5 2328 15 3874 11 1665 9 1562 28 1645 17 78 42 171 56 205 4 11
16 43 25 70 23 63 87 199 98 203 4 2 7 9 7 16 0 14 113 186 164 251 201 255
498 477 806 605 41 17 84 35 95 40 95 40 355 100 520 118 79 9 372 9 460 0 63
-7 96 -12 215 -33 166 -29 380 -104 557 -194 141 -72 370 -229 442 -303 15
-16 23 -11 111 74 504 482 511 489 1029 987 94 90 171 168 171 174 0 17 -264
272 -367 354 -235 187 -390 285 -668 423 -210 103 -368 165 -595 231 -105 31
-123 36 -170 45 -14 3 -38 9 -55 14 -16 5 -59 14 -95 21 -94 16 -102 18 -135
23 -16 3 -50 8 -75 12 -25 3 -52 7 -60 9 -8 2 -46 7 -85 10 -38 4 -81 9 -95
12 -28 5 -596 13 -602 8z m-5318 -1870 c399 -59 763 -225 1054 -480 100 -87
148 -136 204 -205 21 -25 45 -54 55 -65 28 -30 164 -238 178 -271 7 -16 18
-36 24 -44 20 -25 92 -199 128 -310 34 -101 63 -221 73 -305 3 -22 8 -51 11
-65 9 -45 11 -394 3 -445 -35 -206 -46 -262 -72 -350 -169 -580 -586 -1049
-1143 -1285 -490 -207 -1036 -209 -1544 -6 -267 107 -557 320 -760 560 -83 98
-229 316 -237 352 -1 6 -13 28 -26 50 -14 21 -25 41 -25 44 0 3 -10 27 -21 54
-12 27 -22 54 -22 60 0 7 -4 16 -9 22 -9 9 -67 190 -76 233 -2 12 -6 30 -9 39
-3 9 -8 37 -11 62 -4 24 -8 47 -10 50 -18 31 -27 413 -12 550 24 229 107 491
223 706 94 176 198 320 339 469 59 62 219 193 313 255 238 158 555 283 802
316 19 2 62 8 95 13 68 9 406 6 475 -4z"/>
</g>
</svg>
